<?xml version="1.0" encoding="UTF-8"?>
<svg id="Layer_2" data-name="Layer 2" xmlns="http://www.w3.org/2000/svg" viewBox="0 0 249.24 141.19">
  <defs>
    <style>
      .cls-1 {
        fill: #ebb32e;
      }

      .cls-2 {
        fill: #e3b042;
      }
    </style>
  </defs>
  <g id="Layer_1-2" data-name="Layer 1">
    <g>
      <path class="cls-2" d="m65.87,28.54c-.66.89-1.56,1.61-1.98,1.6-.65-.01-.63-.09.08-.52.48-.28,3.07-3.78,5.76-7.8s5.61-8.36,6.5-9.67c1.43-2.11,1.57-2.62,1.3-4.71-.61-4.63,2.8-8.04,7.28-7.28,2.42.41,5.08,2.75,5.63,4.94.46,1.83-.75,5.14-2.31,6.3-1.37,1.02-4.43,2.01-4.43,1.43,0-.21.86-.64,1.9-.95,2.36-.71,3.33-1.79,3.75-4.15.38-2.15-.63-5.02-2.04-5.78-1.19-.63-6.63-.57-7.49.09-.9.7-2.14,3.8-1.88,4.75.81,3.03.78,3.53-.19,4.51-.95.95-1.91,2.35-8.18,11.86-1.36,2.07-3.03,4.49-3.69,5.38Zm79.02,45.81c.09,17.57.02,37.19-.17,43.6-.23,7.71-.37-3.19-.43-32.2-.04-24.12.03-43.74.17-43.6.14.14.33,14.63.43,32.2Zm35.33-22.99c.45.62.7,1.12.56,1.12s-.62-.56-1.06-1.24c-1.45-2.21-4.47-3.36-8.31-3.14-3.12.17-3.53.33-5.27,2.03-2.13,2.08-2.59,2.25-2.59.93,0-2.01,2.84-3.29,8.64-3.89,2.96-.31,5.95.6,6.68,2.02.3.58.91,1.55,1.35,2.17Zm68.9,53.57c.2,1.25.13,2.11-.15,2.11-.62,0-1.7-2.6-1.57-3.79.17-1.64,0-2.44-.77-3.42-.41-.53-1.43-2.02-2.27-3.3s-2.34-2.84-3.34-3.45c-1-.61-1.93-1.25-2.07-1.44-.14-.18-.99-.71-1.9-1.18-.91-.47-1.54-.97-1.4-1.11.53-.53,5.56,2.64,7.93,5.01,2.64,2.64,5,7.13,5.55,10.57Zm-77.4-38.09l2.5.33-2.01.22c-1.1.12-2.55-.06-3.22-.4-.67-.34-1.71-.62-2.31-.62-.76,0-1.62-.8-2.85-2.66-1.56-2.36-1.76-3.02-1.75-5.83,0-1.75.21-3.5.47-3.9.77-1.23,1.01-.32.42,1.62-1.02,3.33,1.3,8.34,4.69,10.09.86.44,2.69.96,4.07,1.15Zm-60.05,24.7c.81,1.15,1.32,2.25,1.14,2.43-.18.19-.34.11-.34-.17,0-.9-3.9-4.98-6.23-6.52-2.2-1.45-2.23-1.51-1.17-2.08.6-.32,2.1-1.51,3.33-2.64,1.41-1.29,2.03-1.65,1.67-.98-.31.6-1.11,1.5-1.77,2.02-1.92,1.51-1.86,3.32.18,4.69.94.63,2.38,2.1,3.18,3.25Zm-95.67,13.14c.18,2.52.1,3.84-.23,3.84-.28,0-.53-.62-.55-1.36-.06-2.87-.49-5.88-1.03-7.22-.41-1.01-.42-1.69-.02-2.48.3-.6.62-1.54.73-2.08.19-1,.58,2.29,1.11,9.3Zm148.22,3.12c2.41,2.58,4.19,4.67,3.97,4.66-.95-.07-2.64-.97-2.64-1.39,0-.26-1.35-1.86-3-3.56-1.65-1.7-2.93-3.38-2.85-3.74.08-.36,2.12,1.46,4.53,4.04ZM15.7,66.36c-.57,6.73-.68,7.25-1.1,4.96-.32-1.75.37-10.3.88-10.8.63-.63.67.45.22,5.85Zm117.85,43.4c0,4.84-.19,7.25-.64,7.94-.59.91-.62.86-.36-.51.42-2.23.47-12.62.06-14.62-.31-1.54-.28-1.62.29-.74.45.69.64,3.1.64,7.94Zm112.68,13.27c-.68,1.16-2.2,3-3.36,4.09-1.9,1.78-1.98,1.82-.79.33.73-.91,1.33-2.04,1.33-2.52s.55-1.16,1.21-1.51c.66-.36,1.49-1.32,1.84-2.16.34-.83.71-1.24.82-.92.11.32-.36,1.53-1.05,2.69ZM107.63,33.6q1.11.45-.12.41c-2.17-.07-4.19-.41-5.21-.87-.55-.24-1.88-.6-2.98-.79-1.09-.19-1.7-.45-1.36-.58.69-.25,7.87,1.11,9.66,1.83Zm-34.1-3.96c.17.28-.06.51-.53.51-1.35,0-.5-2.73,1.51-4.8,2.14-2.21,2.2-1.9.22,1.31-.84,1.36-1.38,2.71-1.21,2.99Zm175.59,82.54c-.09,2.69-.39,5.11-.65,5.37-.91.91-1.03-.43-.34-3.86.38-1.89.8-4.11.93-4.93s.16.71.06,3.41Zm-103.25-73.68c-.07.5-.35,1.44-.62,2.1l-.48,1.21-.03-1.33c-.04-1.92.76-3.74,2.27-5.14,1.95-1.81,2.31-1.48.54.52-.85.95-1.6,2.14-1.68,2.64Zm54.93,74.49c-.65.29-2.89.63-4.96.77-2.7.18-3.45.11-2.66-.24.6-.27,2.83-.62,4.96-.77,2.93-.21,3.57-.15,2.66.24Zm25.44-13.68c1.03,1.35,1.2,1.93.83,2.85-.46,1.13-.46,1.13-.5-.21-.03-1.34-1.54-3.35-2.51-3.35-.27,0-.5-.22-.5-.5,0-1.06,1.43-.42,2.67,1.21ZM.38,80.99c.2,3,.19,6.46-.02,7.69-.25,1.47-.37-.38-.36-5.46v-7.69s.38,5.46.38,5.46Zm167.14-48.86c-2.21.42-10.28.67-9.88.31.11-.1,2.89-.31,6.16-.46,3.97-.18,5.21-.13,3.72.15Zm-10.91,1.24c-.62.74-1.67.89-2.86.42-1.13-.46-.09-1.16,1.71-1.16,1.52,0,1.68.1,1.15.74Zm-125.58-.23c-.46.27-2.25.59-3.97.72l-3.14.23,2.98-.71c1.64-.4,3.42-.72,3.97-.72.88,0,.9.05.16.48Zm12.13,11.88c-.85,0-1.9.13-2.33.3-.43.16-.78.06-.78-.23,0-.77,3.43-1.3,4.1-.63.42.42.16.56-.99.56ZM1.91,112.96c.27.67.42,2.24.34,3.47l-.15,2.25-.37-1.98c-.2-1.09-.35-2.65-.34-3.47q.03-1.48.52-.27Zm210.5,26.3c-.55.01-1.49.16-2.11.32s-1.12.07-1.12-.2c0-.75,2.4-1.21,3.37-.64.77.45.75.5-.14.52ZM1.41,57.75c.28.96.27,2.02,0,2.73-.38.94-.47.62-.46-1.56.01-2.47.06-2.58.47-1.17Zm94.94-26.12c-1.3.56-1.36.56-2.23,0-.55-.35-.21-.47,1.24-.45,1.56.02,1.77.11.99.45Zm11.06,88.76c-.35.56-1.07,1.02-1.59,1.02s-.86-.07-.75-.15c.11-.08.83-.54,1.59-1.02,1.36-.85,1.37-.85.75.15Z"/>
      <path class="cls-1" d="m65.87,28.54c.66-.89,2.33-3.3,3.69-5.38,6.27-9.51,7.24-10.91,8.18-11.86.98-.98,1-1.48.19-4.51-.25-.95.98-4.05,1.88-4.75.86-.66,6.3-.72,7.49-.09,1.41.76,2.43,3.63,2.04,5.78-.43,2.37-1.4,3.44-3.75,4.15-1.05.31-1.9.74-1.9.95,0,.19.33.21.83.11-1.7.46-2.16.97-3.95,3.93-4.92,8.15-6.83,11.49-7.08,12.44.09-.54.57-1.6,1.23-2.67,1.97-3.21,1.92-3.52-.22-1.31-2.01,2.07-2.87,4.8-1.51,4.8.46,0,.69-.23.53-.51,0,0,0-.02-.01-.03.26.22,3.5.54,7.32.71,5.46.25,9.86.53,13.5.88-.55.05-.59.19-.21.43.87.56.93.56,2.23,0,.16-.07.28-.13.35-.18,2.02.24,3.79.51,5.38.81-1.99-.37-3.79-.62-4.12-.5-.34.13.27.39,1.36.58,1.09.19,2.43.55,2.98.79,1.02.46,3.04.79,5.21.87.42.01.7.02.84,0,.69.27,1.37.56,2.03.87,1.99.94,3.73,1.7,3.87,1.7.69,0,6.17,3.82,8.06,5.63,3.14,3,6.49,8.37,7.57,12.15,1.12,3.9,1.38,11.12.59,16.29-.65,4.33-3.73,10.25-6.94,13.37-1.17,1.14-2.13,2.2-2.13,2.35s1.2,1.18,2.66,2.29c3.88,2.93,7.48,8.34,8.95,13.35-.03-.08-.07-.15-.1-.2-.57-.88-.61-.79-.29.74.4,2,.36,12.39-.06,14.62-.26,1.37-.23,1.41.36.51,0,0,.01-.02.02-.03-.16.75-.34,1.41-.54,1.96-2.87,7.97-9.36,13.68-19.7,17.31-4.07,1.43-10.97,2.56-21.61,3.56-8.84.82-30.61.96-38.13.23-2.32-.22-6.78-.65-9.92-.96-3.14-.3-6.49-.74-7.44-.98-.95-.24-3.3-.67-5.21-.97-6.73-1.05-13.98-3-15.98-4.28-.61-.39-1.36-.71-1.67-.71-.97,0-5.24-3-6.28-4.4-2.18-2.95-3.43-5.62-4.29-10.58l.09-1.4c.08-1.24-.07-2.8-.34-3.47-.32-.79-.43-1.06-.47-.75-.32-3.24-.58-7.22-.85-12.21-.28-5.2-.46-8.97-.54-12.33.06,1.56.16,1.9.31,1,.21-1.23.22-4.69.02-7.69l-.27-4.03c.06-1.77.14-3.69.23-5.89.18-4.11.4-7.62.62-10.51.05.61.18.52.42-.08.28-.71.29-1.77,0-2.73-.05-.17-.09-.32-.13-.44.18-1.75.38-3.14.59-4.17.93-4.6,3.09-9.66,4.78-11.18,4.21-3.79,8.99-5.91,19.02-8.38.4-.1,1.08-.22,1.97-.36-.24.05-.49.11-.73.17l-2.98.71,3.14-.23c1.72-.13,3.51-.45,3.97-.72.5-.29.65-.41.43-.46,5.76-.73,13.79-1.55,16.02-1.55,1.61,0,3.06-.21,3.22-.48.16-.26-2.45-3.94-5.8-8.18-5.14-6.5-6.3-7.71-7.42-7.71-1.78,0-4.18-2.1-4.56-3.99-.62-3.1,2.05-6.43,5.14-6.43,2.74,0,5.46,2.73,5.46,5.48,0,1.55,2.89,5.7,8.31,11.96,1.16,1.33,2.48,3.04,2.94,3.78.46.74,1.51,2.07,2.33,2.96,1.24,1.34,1.86,1.61,3.66,1.61,1.2,0,2.59-.23,3.11-.51.51-.27,3.06-3.66,5.69-7.58-2.63,3.91-5.13,7.29-5.6,7.56-.72.42-.73.5-.08.52.43,0,1.32-.71,1.98-1.6Zm79.02,45.81c-.07-12.62-.19-23.66-.3-28.92.04-1.97.09-3.4.16-4.47l.02.86.48-1.21c.26-.66.54-1.61.62-2.1.08-.5.83-1.69,1.68-2.64.66-.75,1.03-1.27,1.12-1.52.62-.25,1.35-.47,2.24-.68.91-.22,1.74-.41,2.54-.58-.28.23-.23.5.3.71,1.19.48,2.24.32,2.86-.42.47-.57.39-.71-.67-.74.58-.08,1.17-.16,1.8-.22-.05,0-.08.02-.09.03-.4.36,7.67.11,9.88-.31.34-.06.55-.12.6-.16,3.2-.04,7.19-.05,12.3-.05,17.99,0,21.95.12,27.03.89,9.93,1.51,18.04,4,21.42,6.56.87.65,1.72,1.2,1.89,1.2.87,0,4.54,3.56,6.39,6.19,3.84,5.48,5.04,9.65,4.63,16.04-.6,9.21-5.37,17.51-12.44,21.66-1.26.74-2.29,1.49-2.29,1.67s2.34,1.06,5.2,1.97c1.23.39,2.37.79,3.42,1.22,0,0-.01.01-.02.02-.14.14.49.64,1.4,1.11.91.47,1.77,1,1.9,1.18.14.18,1.07.83,2.07,1.44,1.01.61,2.51,2.16,3.34,3.45s1.86,2.77,2.27,3.3c.76.99.94,1.78.77,3.42-.13,1.19.95,3.79,1.57,3.79.05,0,.09-.02.13-.07,0,.48,0,1.01.01,1.59-.02,0-.04.08-.06.22-.13.82-.55,3.04-.93,4.93-.69,3.43-.57,4.77.34,3.86.03-.03.07-.11.1-.22-.2.73-.48,1.48-.85,2.44-.18.47-.38.93-.6,1.38.13-.38.19-.67.14-.81-.11-.32-.48.09-.82.92-.35.83-1.17,1.8-1.84,2.16-.66.35-1.21,1.04-1.21,1.51s-.6,1.61-1.33,2.52c-1.18,1.46-1.12,1.45.71-.26-.97.95-2.07,1.89-3.34,2.86-3.4,2.59-5.08,3.5-8.87,4.83-5.37,1.88-11.09,3.25-17.53,4.17-.08-.07-.25-.17-.49-.31-.97-.57-3.37-.11-3.37.64,0,.06.02.11.06.15-3,.33-6.15.58-9.49.74-15.87.77-36.01.33-43.65-.98-7.35-1.25-9.7-2.77-11.02-7.12-.26-.84-.42-4.05-.52-11.88.04.24.09-.54.15-2.36.19-6.41.26-26.03.17-43.6Zm-33.23,17.19c-.81-1.15-2.24-2.61-3.18-3.25-2.04-1.37-2.11-3.18-.18-4.69.66-.52,1.45-1.42,1.77-2.02.29-.55-.05-.42-.94.34,4.43-4.81,6.62-12.44,5.38-19.88-1.53-9.18-7-13.76-18.75-15.71-10.58-1.76-14.45-2.01-29.67-1.95-9.08.04-17.79.37-25.14.93.48-.15,1.43-.26,2.22-.26,1.15,0,1.4-.14.99-.56-.67-.67-4.1-.14-4.1.63,0,.11.05.19.14.25-3.88.31-7.37.68-10.31,1.12-6.29.92-10.9,3.43-12.4,6.75-.66,1.47-1.19,5.21-1.56,10.21.18-2.85.05-3.41-.45-2.91-.51.5-1.2,9.05-.88,10.8.42,2.3.54,1.78,1.1-4.96.05-.59.09-1.13.13-1.62-.64,9.55-.76,23.02-.31,34.13-.28-2.94-.5-4.16-.62-3.5-.1.55-.43,1.48-.73,2.08-.4.79-.39,1.47.02,2.48.54,1.33.97,4.35,1.03,7.22.01.75.26,1.36.55,1.36.15,0,.24-.25.29-.73.21,2.44.47,4.59.76,6.32.51,2.98.81,3.58,2.64,5.27,1.14,1.05,3.39,2.41,5,3.03,3.9,1.49,13.55,2.92,23.02,3.42,23.42,1.24,44.33.07,53.45-2.96,1.71-.57,3.61-1.43,5.35-2.38-.61.39-1.13.72-1.23.79-.11.08.22.15.75.15s1.24-.46,1.59-1.02c.32-.51.47-.76.36-.77,1.71-1.04,3.11-2.1,3.81-2.96,3.03-3.69,4.37-10.19,3.38-16.34-.36-2.21-1.13-4.34-2.27-6.29.03-.01.07-.04.11-.08.18-.18-.33-1.28-1.14-2.43Zm-55,14.94c-2.48,1.32-2.81,1.31-4.14-.09-1.07-1.15-1.08-1.27-1.08-22.31s.03-21.17.97-21.68c1.5-.8,3.89.28,12.18,5.5,16.23,10.22,23.54,15.12,23.83,15.97.43,1.25-.83,2.96-3.5,4.76-1.25.85-2.38,1.54-2.5,1.54s-3.07,1.86-6.55,4.13c-11.1,7.25-17.18,11.11-19.21,12.18Zm169.57-7.17c-1.24-1.62-2.67-2.27-2.67-1.21,0,.27.22.5.5.5.44,0,.98.41,1.45.98-.66-.63-1.62-.98-2.84-.98-1.72,0-2.19.34-5.47,3.94-4.6,5.05-10.34,8.62-16.13,10.31.42-.27-.4-.29-2.94-.1-2.13.15-4.36.5-4.96.77-.79.35-.03.42,2.66.24.85-.05,1.73-.14,2.5-.25-3.41.63-6.79.6-9.91-.2-1.73-.45-3.51-.81-3.97-.81-1.37,0-7.1-2.92-9.5-4.84-1.23-.99-3.94-3.54-6.03-5.67-3.51-3.6-3.93-3.88-5.81-3.88-2.52,0-3.83,1.56-3.3,3.94.42,1.92,8.83,10.82,12.71,13.46,4.13,2.81,10,5.05,15.32,5.86,12.82,1.95,26.1-3.18,35.59-13.77,2.58-2.88,3.1-3.75,3.1-5.23,0-.51-.06-.96-.19-1.37.13.34.21.67.22.97.03,1.34.04,1.34.5.21.37-.92.2-1.5-.83-2.85Zm-46.02-47.95c-.45-.62-1.06-1.59-1.35-2.17-.73-1.43-3.72-2.33-6.68-2.02-5.79.6-8.64,1.88-8.64,3.89,0,1.32.46,1.15,2.59-.93.84-.81,1.36-1.27,2.03-1.55-.71.3-1.3.84-2.32,1.84-1.23,1.2-2.09,2.51-2.6,3.89.13-.97-.14-1.24-.72-.33-.25.4-.47,2.16-.47,3.9,0,2.81.19,3.47,1.75,5.83,1.24,1.86,2.09,2.65,2.85,2.66.6,0,1.64.29,2.31.62.67.34,2.12.52,3.22.4l2.01-.22-2.5-.33c-.17-.02-.36-.05-.55-.09,3.04.38,6.13-.6,8-2.71,3.22-3.66,3.36-8.8.9-12.3.33.43.62.74.72.74.14,0-.11-.5-.56-1.12Zm26.79,15.46c5.48.89,9.44-1.07,11.3-5.6,1.18-2.87.99-5.68-.58-8.78-1.76-3.47-3.96-4.67-8.56-4.65-4.03,0-5.84.93-7.88,4.01-1.27,1.92-1.55,2.82-1.54,5.1.02,5.22,2.94,9.22,7.24,9.92Zm-42.8,40.99c-2.41-2.58-4.44-4.39-4.53-4.04-.08.36,1.21,2.04,2.85,3.74,1.65,1.7,3,3.3,3,3.56,0,.43,1.69,1.32,2.64,1.39.22.01-1.56-2.08-3.97-4.66Zm-30.67,1.96c0-3.54-.1-5.78-.34-7,.04.18.09.35.13.53.56,2.49.55,7.01.12,10.89.06-1.16.08-2.62.08-4.42Zm115.38-5.82c-.79-3.27-2.95-7.19-5.35-9.58-.9-.9-2.18-1.91-3.45-2.79,3.48,2.19,5.82,4.99,7.66,8.91.62,1.34.96,2.18,1.14,3.47ZM88.62,2.23c-1.09-1.04-2.48-1.85-3.81-2.07-1.15-.19-2.22-.11-3.18.19,2.16-.76,4.78-.33,6.87,1.76.04.04.08.08.12.12Zm91.32,49.31c-.78-1.05-1.81-1.94-3.06-2.58-.16-.08-.32-.16-.48-.23,1.45.54,2.59,1.38,3.33,2.51.07.1.14.2.2.3Zm-11.72,14.37c.13.06.26.11.39.16-.37-.13-.7-.26-.95-.39-3.03-1.57-5.21-5.74-4.91-8.99-.15,2.2.58,4.47,2.18,6.62.68.92,2.16,2.08,3.28,2.59Zm-62.32,18.73c-.34.25-.62.45-.82.55-1.06.57-1.03.63,1.11,2.05l-2.17-1.44,1.69-1.04c.06-.04.13-.08.19-.12ZM88.79,10.76c.88-1.06,1.56-2.74,1.71-4.18-.03.57-.17,1.18-.38,1.83-.31.93-.74,1.71-1.33,2.35Zm58.56,24.27c-.11.09-.22.2-.34.31-.89.82-1.53,1.79-1.9,2.84.08-.28.17-.48.27-.68.56-1.12,1.14-1.88,1.98-2.47Zm101.31,81.96c.18-.82.35-2.42.43-4.21-.04,1.91-.15,3.08-.43,4.21Zm-136.23-23.37c-.37-.61-.78-1.19-1.23-1.76.64.74,1.1,1.38,1.23,1.76ZM85.51,12.68c.71-.24,1.5-.59,2.13-.96-.61.39-1.31.7-2.13.96ZM0,81.83v3.29c0-1.1,0-2.18,0-3.29Z"/>
    </g>
  </g>
</svg>