<?xml version="1.0" encoding="utf-8"?>
<!-- Generator: Adobe Illustrator 27.5.0, SVG Export Plug-In . SVG Version: 6.00 Build 0)  -->
<svg version="1.1" id="Layer_1" xmlns="http://www.w3.org/2000/svg" xmlns:xlink="http://www.w3.org/1999/xlink" x="0px" y="0px"
	 viewBox="0 0 1024 254" style="enable-background:new 0 0 1024 254;" xml:space="preserve">
<style type="text/css">
	.st0{fill:#D9AF28;}
</style>
<path class="st0" d="M364.7,149.9c3.4,2.3,6.3,4.2,9.1,6.2c23.5,17.3,20.5,57.4-8.4,71.7c-10.2,5-21.1,7.4-32.2,8.3
	c-26.6,2.4-53.2,2.8-79.8-0.3c-11.2-1.3-15.1-5.7-15.2-17.1c-0.2-19.7-0.1-39.3-0.1-59c0-24.2,0-48.3,0-72.5c0-1.3,0-2.7,0-4
	c0.3-13.5,3.6-17.4,17-18.2c28.1-1.7,56.3-2.9,84.3,1.2c15.8,2.3,29.4,8.9,38.5,22.6c12.6,19.2,8.2,44.6-9.9,58.6
	C367,148.2,366.1,148.9,364.7,149.9z M316.8,207.4c15.5-0.4,31.3-9.6,43.5-25.7c2.4-3.1,2.4-6.3-0.7-8.9c-3.2-2.6-6.5-2.2-9.4,0.7
	c-0.8,0.8-1.4,1.8-2.2,2.7c-13.4,16.7-33.5,22.7-52.8,15.7c-9.4-3.4-16.5-9.8-22.6-17.5c-3-3.7-7.1-4.3-10.1-2
	c-3.1,2.4-3.3,6.4-0.3,10.1C275.2,198.3,291.1,207.7,316.8,207.4z M293.1,106.7c0-8.6-6.1-15.6-13.6-15.6c-7.4,0-13.3,6.8-13.4,15.2
	c-0.1,8.2,6,15.1,13.4,15.2C287.1,121.7,293,115.2,293.1,106.7z M322.7,106.2c0,8.6,6,15.6,13.5,15.5c7.3-0.1,12.9-6.5,13-14.8
	c0.1-8.9-5.6-15.7-13.2-15.7C328.5,91.2,322.7,97.8,322.7,106.2z"/>
<path class="st0" d="M85.1,61.3C78.2,52.8,72.2,45.2,66,37.9c-0.9-1.1-2.8-1.5-4.4-2c-4.5-1.5-7.3-5.6-6.6-9.9s4.4-7.3,8.8-7.2
	c4.7,0.1,7.8,3.3,8.8,8c0.5,2.6,1.6,5.3,3.2,7.4c6.1,7.9,12.5,15.6,18.9,23.3c3.7,4.4,12.5,4.2,15.9-0.4c6.1-8.3,12.3-16.6,18.2-25
	c1.2-1.7,1.8-4.2,1.8-6.3c-0.1-6.2,3.1-10.6,8.8-11.4c5-0.7,10.3,3,11.3,7.8c1.2,5.8-2.1,10.5-8.2,12.5c-2.3,0.8-4.7,2.3-6.1,4.2
	c-5,6.6-9.7,13.5-15.1,21.1c2.2,0.1,3.9,0.1,5.6,0.3c15.7,1.3,31.7,1.7,47.2,4.3c16.9,2.9,30.6,12,38.9,27.7
	c8.8,16.5,6.1,43-10.9,55.9c-0.8,0.6-1.4,1.4-2.5,2.3c2.5,2,4.9,4,7.3,5.9c20.7,16.8,18.6,57-9.9,70.8c-12.6,6.1-26,8.3-39.6,9.4
	c-32.1,2.7-64.3,2.2-96.2-2.9c-8.5-1.4-16.8-4.1-25-6.8c-12.6-4.2-19.1-13.4-20.4-26.4c-3.3-35.1-3.8-70.2-0.2-105.3
	C16.8,84.1,22.9,76.4,33,72c14.4-6.4,29.8-8.1,45.2-9.8C80.3,61.9,82,61.6,85.1,61.3z M174.2,150.4c2.1-1.5,3.6-2.5,5.1-3.5
	c15.6-10.2,19.9-45.2-3-55.8c-3.9-1.8-8.1-3.2-12.2-4.2c-20-4.5-40.4-4.7-60.7-3.8c-16.1,0.7-32.2,2.2-48.1,4.7
	c-13,2-17.2,7.2-17.5,20.4c-0.5,24.9-0.6,49.9-0.1,74.9c0.4,20.1,5.2,24.8,25,27.9c0.3,0,0.7,0.1,1,0.1c26.4,3.5,52.8,3.3,79.3,1.5
	c11.4-0.8,22.9-2.2,33.5-7.3c9.5-4.6,14.9-11.9,15.5-22.6C192.9,168.6,187.4,157.8,174.2,150.4z"/>
<path class="st0" d="M416.5,214.9c0-29.5,0-58.3,0-87.9c14.5,0.9,28.8-2.4,42.8,2c7.9,2.5,12.2,8.1,13.5,16.3
	c1.3,8.6-1.7,15.4-8.7,20.4c-2,1.4-4.3,2.3-7,3.7c2.4,0.9,4.2,1.4,6,2.2c7.9,3.7,12.3,9.9,12.5,18.8c0.1,8.8-2.9,16.1-10.9,20.4
	c-3.7,2-8.1,3.8-12.2,3.9C440.6,215.2,428.8,214.9,416.5,214.9z M429,206.3c7.9-0.5,15.2-0.3,22.4-1.5c6.9-1.1,10.8-6.4,11.2-13.4
	c0.4-7-2.5-12.1-8.5-14.4c-8.1-3.1-16.6-2-25-1.8C429,185.6,429,195.4,429,206.3z M429,135.6c0,10.7,0,20,0,30.7
	c7.8-0.9,15.5-1.1,22.7-2.9c6.1-1.5,8.8-7.3,8.4-14.3c-0.4-6.4-3.4-10.7-9.5-11.7C443.7,136.3,436.6,136.2,429,135.6z"/>
<path class="st0" d="M735,169.4c15,5.9,20,14.3,17,27.9c-2.1,9.5-10.4,16.8-21.8,17.4c-11.9,0.7-23.9,0.2-36.4,0.2
	c0-28.9,0-58,0-87.5c1.3-0.1,2.7-0.4,4.1-0.4c8.8,0,17.7-0.3,26.5,0.1c4.4,0.2,9,1.1,13.1,2.6c8.2,3,12.3,9.3,12.7,18
	c0.4,8.9-3.5,15.4-11.4,19.4c-1,0.5-2.1,1-3.1,1.5C735.5,168.6,735.4,168.8,735,169.4z M706.5,206.4c7.6-0.5,14.9-0.4,22-1.6
	c7.2-1.2,11-6.7,11.2-14c0.2-7.4-3-12.9-9.9-14.3c-7.5-1.5-15.3-1.5-23.4-2.2C706.5,185.5,706.5,195.2,706.5,206.4z M706.2,150.5
	C706.2,150.5,706.1,150.5,706.2,150.5c-0.1,4-0.2,8,0,12c0.1,1.1,1.5,3.1,2.2,3c6.9-0.4,14-0.4,20.6-2c6.5-1.7,9-7.7,8.2-15.3
	c-0.7-6.2-4.2-10-10.9-11.1c-3.9-0.6-7.9-0.8-11.9-0.9c-8.2-0.2-8.2-0.1-8.1,7.8C706.2,146.2,706.2,148.3,706.2,150.5z"/>
<path class="st0" d="M568.2,231.8c1.6-2.6,3.1-5,4.5-7.4c4.1,1.8,7.8,3.8,11.7,5c17.3,5.5,28.2-4.5,24.9-22.4
	c-15.7,10.4-28.7,10.2-37.9-0.8c-8.3-10-8-29.8,0.7-39c10.2-10.8,22.8-10.7,37.9,0.5c0.3-2.2,0.6-4.3,1-6.8c3.2,0,6.3,0,9.8,0
	c0.1,1.1,0.4,2.4,0.4,3.7c0,16.3,0.2,32.6,0,48.9c-0.1,17.2-8,25.3-25.1,26.4C585.8,240.8,576.6,238.6,568.2,231.8z M610.4,187.1
	c-0.6-2.7-0.9-5.6-1.8-8.2c-2.4-6.8-8.3-10.4-16.1-10c-7.2,0.3-12.6,4.1-14,11.2c-0.9,4.4-0.9,9.3,0,13.8
	c1.5,7.5,7.2,11.4,14.8,11.5C603.3,205.6,610,198.3,610.4,187.1z"/>
<path class="st0" d="M928.6,127.4c4.4,0,7.8,0,11.6,0c0,29.1,0,58,0,87.3c-3.2,0-6.4,0-9.9,0c-0.3-2.3-0.6-4.6-0.9-7.3
	c-0.9,0.5-1.5,0.7-1.8,1c-7.3,8.4-16.5,10.3-26.7,6.8c-10-3.4-15.3-11-16.5-21.2c-0.6-4.7-0.2-9.7,0.6-14.4
	c1.6-9.4,6.9-16.1,16.3-19c9.6-3,18.4-1.8,25.6,6c0.3,0.4,0.8,0.6,1.8,1.4C928.6,154.3,928.6,141.2,928.6,127.4z M929,186.7
	c0-0.4-0.1-2.3-0.5-4c-1.9-8.8-7.9-13.7-16.5-13.6c-8.5,0-14.3,4.7-15.5,13.8c-0.6,4.9,0.2,10.2,1.6,15c1.3,4.5,5.2,7.2,9.8,8.3
	C919.4,209,929.1,200.7,929,186.7z"/>
<path class="st0" d="M876.8,214.9c-3.5,0-6.4,0-10,0c-0.4-2.5-0.7-5-1-6.7c-4.7,2.7-9.1,6.4-14.1,7.6c-17.8,4.4-32.4-9.4-31.4-29.2
	c1-19.5,15.1-31.4,32.5-26.5c4.4,1.2,8.2,4.6,12.8,7.2c0-12.9,0-26.2,0-39.8c4.1,0,7.5,0,11.2,0
	C876.8,156.6,876.8,185.5,876.8,214.9z M865.8,186.7c-0.4-5.7-2-12.2-8.6-15.6c-5.8-3-12.1-3.3-17.5,0.7c-7.2,5.2-8.1,13-6.7,21.1
	c1.1,6.3,4.5,11,10.8,13.1c0.2,0,0.3,0.1,0.5,0.1C855.8,209.1,865.8,200.7,865.8,186.7z"/>
<path class="st0" d="M642.2,191.4c1.5,16,15.2,20.1,35.1,11c1.3,2.6,2.5,5.2,3.8,7.7c-10.2,8-28.6,9.1-39,2.5
	c-12.4-7.8-16.1-25.6-8.5-40.1c6-11.4,22.4-16.6,34.9-11.2c9.8,4.3,16.5,17.2,13.8,27.3c-0.3,1.2-2.8,2.4-4.4,2.4
	c-10,0.2-20,0.1-30,0.1C646.1,191.1,644.3,191.3,642.2,191.4z M670.5,182.9c0.6-9.2-4.1-14.6-12.5-15c-9-0.4-15.3,5.5-15.7,15
	C651.7,182.9,660.9,182.9,670.5,182.9z"/>
<path class="st0" d="M558.7,214.9c-4.4,0-7.7,0-11.8,0c0-2,0-3.9,0-5.9c0-9.3,0.1-18.6,0-28c0-7.6-3.8-11.3-11.3-11.5
	c-9.7-0.3-16.5,6.1-16.6,15.9c-0.2,9.3-0.2,18.6-0.2,28c0,0.3-0.2,0.6-0.5,1.3c-3.2,0-6.7,0-10.5,0c0-17.7,0-35.3,0-53.4
	c3.3,0,6.6,0,10.1,0c0.4,2.5,0.8,4.9,1,6.2c6-2.7,11.8-6.4,18.1-7.8c13.2-2.8,21.6,4.7,21.7,18.3
	C558.8,190.2,558.7,202.3,558.7,214.9z"/>
<path class="st0" d="M800.6,205.6c-5.4,6-10.6,10-17.9,10.7c-13.9,1.3-21.7-5.5-21.8-19.3c-0.1-11.3,0.1-22.7,0.2-34
	c0-0.5,0.2-0.9,0.4-1.8c3.5,0,7.1,0,11.3,0c0,6.2,0,12.4,0,18.5c0,4,0,8,0,12c0,9.8,3.4,14.1,11.3,14.3c8.1,0.2,15.8-6.6,16-14.7
	c0.2-8.3,0-16.7,0-25c0-1.6,0.2-3.2,0.2-5.2c3.7,0,7.2,0,11,0c0,17.7,0,35.4,0,53.6c-3.1,0-6.3,0-10.1,0
	C801.1,212.2,800.9,209.6,800.6,205.6z"/>
<path class="st0" d="M1004.8,161.2c-10.8,25.1-21.3,49.7-32.1,74.2c-0.6,1.4-2.7,2.6-4.4,2.9c-2.5,0.5-5.2,0.1-9,0.1
	c2.7-6,4.8-11.3,7.4-16.4c2.6-5,2.5-9.5,0.1-14.6c-6.2-13.5-11.8-27.1-17.7-40.7c-0.7-1.7-1.4-3.3-2.5-5.9c3.9,0,7.4-0.3,10.7,0.2
	c1.3,0.2,2.7,2.1,3.3,3.5c4.7,11.4,9.2,22.8,13.9,34.2c0.4,0.9,0.8,1.8,1.6,3.6c4.1-10.3,7.9-19.7,11.7-29.2
	c0.4-1.1,0.8-2.2,1.2-3.3C993.1,160,993.3,160,1004.8,161.2z"/>
<path class="st0" d="M485.3,160.8c3.7,0,7,0,10.7,0c0,18.1,0,35.9,0,54c-3.7,0-7,0-10.7,0C485.3,197,485.3,179.1,485.3,160.8z"/>
<path class="st0" d="M490.7,147c-4.4,0.1-7.7-2.8-7.4-6.8c0.3-4.2,2.9-6.1,7-6.2c4.7-0.1,7.6,2.3,7.6,6.6
	C497.8,144.5,495.1,146.9,490.7,147z"/>
<path class="st0" d="M91.1,147.2c0-9.8-0.1-19.6,0.1-29.5c0.1-6.1,3.8-8.4,8.9-5.2c16.1,10,32,20.3,47.8,30.9c4.4,3,4.3,6.6-0.3,9.6
	c-15.4,10.3-30.8,20.4-46.4,30.3c-5.8,3.6-9.7,1.3-9.8-5.6c-0.3-10.1-0.1-20.3-0.1-30.5C91.2,147.2,91.1,147.2,91.1,147.2z"/>
</svg>
